<?xml version="1.0"?>
<svg xmlns="http://www.w3.org/2000/svg" id="Layer_1_copy_2" data-name="Layer 1 copy 2" viewBox="0 0 64 64" width="512" height="512"><path d="M57.871.237a1,1,0,0,0-1.356.4L47.879,16.522a1,1,0,1,0,1.757.955L58.272,1.593A1,1,0,0,0,57.871.237Z"/><path d="M63.435,3.3a1,1,0,0,0-1.354.408L48.437,29.129l-3.872-2.323,2.353-4.328a1,1,0,1,0-1.757-.955L32.813,44.236A4.971,4.971,0,0,1,28.341,47H10.575a7.03,7.03,0,0,0-6.73,5.077l-.572,2A7,7,0,0,0,10,63H28.341a6.949,6.949,0,0,0,6.247-3.844L42.31,44.771l.008-.01,0-.014,7.344-13.681c.005-.008.013-.014.018-.023s.006-.022.012-.033L63.842,4.658A1,1,0,0,0,63.435,3.3ZM47.49,30.893,41.073,42.848,37.13,40.482l6.479-11.917ZM6.012,59.011A4.958,4.958,0,0,1,5.2,54.626l.572-2A5.021,5.021,0,0,1,10.575,49h4.148L11.3,61H10A4.96,4.96,0,0,1,6.012,59.011ZM13.375,61,16.8,49h4.92L18.295,61Zm19.438-2.764A4.971,4.971,0,0,1,28.341,61H20.375L23.8,49h4.538a6.946,6.946,0,0,0,6.245-3.839l1.587-2.92,3.953,2.371Z"/><path d="M55,48c-4.561,0-8,1.935-8,4.5v6c0,2.565,3.439,4.5,8,4.5s8-1.935,8-4.5V53a.941.941,0,0,0-.03-.147A2.814,2.814,0,0,0,63,52.5C63,49.935,59.561,48,55,48Zm0,2c3.717,0,6,1.456,6,2.5S58.717,55,55,55s-6-1.456-6-2.5S51.283,50,55,50Zm0,11c-3.717,0-6-1.456-6-2.5V55.532A11.463,11.463,0,0,0,55,57a11.463,11.463,0,0,0,6-1.468V58.5C61,59.544,58.717,61,55,61Z"/><path d="M39.416,11.573a1,1,0,0,0,1.641-1.145A22.007,22.007,0,0,0,10.428,4.944a1,1,0,1,0,1.145,1.641,20.006,20.006,0,0,1,27.844,4.988Z"/><path d="M8.015,8.255A1,1,0,0,0,6.6,8.333a21.94,21.94,0,0,0-4.3,7.237.972.972,0,0,0-.05.151A21.983,21.983,0,0,0,1,23V36a1,1,0,0,0,.143.515l3,5A1,1,0,0,0,5,42H25a1,1,0,0,0,.857-.485l3-5c.012-.02.012-.044.023-.065a1.408,1.408,0,0,0,.106-.383c0-.023.013-.043.013-.067V16a1,1,0,0,0-1-1H10a1,1,0,1,0,0,2h.613L9.051,21.684A1,1,0,0,0,9,22v3H3V23a19.989,19.989,0,0,1,.938-6H6a1,1,0,1,0,0-2H4.689a19.94,19.94,0,0,1,3.4-5.333A1,1,0,0,0,8.015,8.255ZM3,35.723V35H9v1a1.008,1.008,0,0,0,.071.372L10.523,40H5.566Zm24-5.444-7,2.333V26.721l7-2.333ZM18,33H11V27h7Zm0,2v1a1.008,1.008,0,0,0,.071.372L19.523,40H12.677L11,35.808V35Zm6.434,5H21.677L20,35.808V34.721l7-2.333v3.335ZM27,22.279l-7,2.333V22.162L21.721,17H27Zm-16-.117L12.721,17h6.892l-1.561,4.684A1,1,0,0,0,18,22v3H11ZM9,27v6H3V27Z"/><path d="M36,15H34a1,1,0,0,0,0,2h2a1,1,0,0,0,0-2Z"/><path d="M36,21H34a1,1,0,0,0,0,2h2a1,1,0,0,0,0-2Z"/><path d="M28.156,9a1,1,0,0,0,0,2h.969a1,1,0,0,0,0-2Z"/><path d="M34,10a1,1,0,0,0-1-1h-.969a1,1,0,0,0,0,2H33A1,1,0,0,0,34,10Z"/></svg>
