<svg height="512" viewBox="0 0 512 512" width="512" xmlns="http://www.w3.org/2000/svg"><g><path d="m384 168a32 32 0 1 0 -32-32 32.036 32.036 0 0 0 32 32zm0-48a16 16 0 1 1 -16 16 16.019 16.019 0 0 1 16-16z"/><path d="m460 224h-44v-24h16a8 8 0 0 0 8-8v-92a28.031 28.031 0 0 0 -28-28h-296a28.031 28.031 0 0 0 -28 28v92a8 8 0 0 0 8 8h16v240h-40a8 8 0 0 0 -8 8v28a28.031 28.031 0 0 0 28 28h344a28.031 28.031 0 0 0 28-28v-28a8 8 0 0 0 -8-8h-40v-144h44a28.031 28.031 0 0 0 28-28v-16a28.031 28.031 0 0 0 -28-28zm-158.25-136-4 16h-67.5l-4-16zm-197.75 96v-84a12.01 12.01 0 0 1 12-12h93.75l6.49 25.94a8 8 0 0 0 7.76 6.06h80a8 8 0 0 0 7.76-6.06l6.49-25.94h93.75a12.01 12.01 0 0 1 12 12v84zm260 224a28.031 28.031 0 0 0 28-28v-8a28.031 28.031 0 0 0 -28-28h-12v-8a8 8 0 0 0 -8-8h-160a8 8 0 0 0 -8 8v72a47.8 47.8 0 0 0 12.26 32h-60.26v-240h64v24a8 8 0 0 0 8 8h8v56a8 8 0 0 0 8 8h16v16a8 8 0 0 0 8 8h48a8 8 0 0 0 8-8v-16h16a8 8 0 0 0 8-8v-8h24v8a8 8 0 0 0 8 8h48v144h-60.26a47.8 47.8 0 0 0 12.26-32zm-12-16v-32h12a12.01 12.01 0 0 1 12 12v8a12.01 12.01 0 0 1 -12 12zm-16-48v64a32.036 32.036 0 0 1 -32 32h-80a32.036 32.036 0 0 1 -32-32v-64zm-128-128v-16h112v16zm112 40h24v8h-24zm-96 24v-48h80v48zm56 16v8h-32v-8zm64-64v8h-24v-8h8a8 8 0 0 0 8-8v-24h64v24h-48a8 8 0 0 0 -8 8zm104 224v20a12.01 12.01 0 0 1 -12 12h-344a12.01 12.01 0 0 1 -12-12v-20zm24-188a12.01 12.01 0 0 1 -12 12h-100v-40h100a12.01 12.01 0 0 1 12 12z"/><path d="m168 168a8 8 0 0 0 8-8v-48a8 8 0 0 0 -8-8h-48a8 8 0 0 0 -8 8v48a8 8 0 0 0 8 8zm-40-48h32v32h-32z"/><path d="m73.485 57.485a8 8 0 1 0 11.314 0 8 8 0 0 0 -11.314 0z"/><path d="m78.249 47.167a8 8 0 0 0 -.885-15.976 32 32 0 0 0 -30.173 30.173 8 8 0 0 0 7.546 8.43c.151.009.3.013.45.013a8 8 0 0 0 7.98-7.558 16 16 0 0 1 15.082-15.082z"/><path d="m76.913 23.2a8 8 0 0 0 -.885-15.976 56 56 0 0 0 -52.8 52.8 8 8 0 0 0 7.545 8.43q.226.012.45.012a8 8 0 0 0 7.977-7.552 40 40 0 0 1 37.713-37.714z"/></g></svg>