<svg id="Capa_1" enable-background="new 0 0 512 512" height="512" viewBox="0 0 512 512" width="512" xmlns="http://www.w3.org/2000/svg"><g><path d="m75.079 51.61h4.324c4.135 0 7.486-3.352 7.486-7.487s-3.351-7.487-7.486-7.487h-4.324c-4.135 0-7.487 3.352-7.487 7.487 0 4.136 3.352 7.487 7.487 7.487z"/><path d="m75.079 75.116h4.324c4.135 0 7.486-3.352 7.486-7.487s-3.351-7.486-7.486-7.486h-4.324c-4.135 0-7.487 3.352-7.487 7.486 0 4.135 3.352 7.487 7.487 7.487z"/><path d="m134.078 36.637h-4.324c-4.135 0-7.487 3.352-7.487 7.487s3.351 7.487 7.487 7.487h4.324c4.135 0 7.487-3.352 7.487-7.487s-3.351-7.487-7.487-7.487z"/><path d="m134.078 60.143h-4.324c-4.135 0-7.487 3.352-7.487 7.486 0 4.135 3.351 7.487 7.487 7.487h4.324c4.135 0 7.487-3.352 7.487-7.487 0-4.134-3.351-7.486-7.487-7.486z"/><path d="m499.334 142.964h-47.578c10.532-18.302 11.707-37.351 11.628-45.791-.067-6.909-5.746-12.53-12.659-12.53h-65.783c-6.913 0-12.591 5.621-12.658 12.53-.081 8.439 1.093 27.487 11.627 45.791h-217.171v-116.382c0-8.764-7.13-15.894-15.894-15.894h-92.535c-8.765 0-15.894 7.13-15.894 15.894v43.349c0 4.135 3.351 7.487 7.487 7.487 4.135 0 7.487-3.352 7.487-7.487v-43.349c0-.508.413-.921.921-.921h38.781v117.303h-39.703v-38.269c0-4.135-3.352-7.487-7.487-7.487s-7.487 3.352-7.487 7.487v38.269h-29.75c-6.984 0-12.666 5.682-12.666 12.666v25.997c0 6.984 5.682 12.665 12.666 12.665h8.483v292.03c0 8.266 6.725 14.991 14.992 14.991h24.678c8.265 0 14.991-6.725 14.991-14.991l.018-103.383 360.364.018v103.365c0 8.266 6.725 14.991 14.991 14.991h24.678c8.266 0 14.992-6.725 14.992-14.991v-120.39c0-4.135-3.352-7.487-7.487-7.487s-7.487 3.352-7.487 7.487l-.019 120.408-24.696-.018v-103.366c0-8.266-6.725-14.991-14.991-14.991h-360.346c-8.265 0-14.991 6.725-14.991 14.991l-.017 103.383-24.697-.018v-292.03h439.757v136.814c0 4.135 3.351 7.487 7.487 7.487 4.135 0 7.487-3.352 7.487-7.487v-136.813h8.483c6.984 0 12.666-5.682 12.666-12.665v-25.997c-.002-6.984-5.684-12.666-12.668-12.666zm-50.938-43.348c-.21 9.316-2.352 27.746-14.664 43.348h-31.795c-12.314-15.605-14.454-34.033-14.663-43.348zm-336.331-73.955h38.781c.508 0 .921.413.921.921v116.382h-39.702zm384.962 153.657h-482.054v-21.381h482.054z"/></g></svg>